<svg xmlns="http://www.w3.org/2000/svg" version="1.0" preserveAspectRatio="xMidYMid meet" viewBox="214.39 123.06 595.52 608.94">

<g transform="translate(0.000000,1024.000000) scale(0.100000,-0.100000)" fill="#fa8112" stroke="none">
<path d="M5110 8981 c-241 -50 -455 -126 -668 -237 -67 -35 -124 -64 -126 -64 -2 0 -7 43 -11 95 -5 62 -11 95 -19 95 -16 0 -214 -129 -296 -193 -149 -116 -274 -243 -416 -422 l-32 -40 -28 58 c-16 31 -31 57 -34 57 -3 0 -12 -10 -19 -22 -129 -204 -180 -307 -234 -473 -53 -163 -67 -227 -92 -419 l-7 -49 -38 44 c-28 32 -40 40 -44 29 -13 -37 -26 -208 -26 -345 0 -308 42 -523 166 -844 129 -335 197 -574 210 -741 4 -47 12 -91 18 -99 20 -26 146 -79 218 -92 135 -24 264 17 352 111 48 51 79 107 126 224 76 192 193 409 289 535 41 53 141 141 162 141 4 0 -5 -28 -21 -63 -46 -102 -98 -261 -116 -355 -50 -264 52 -535 251 -672 51 -35 157 -82 212 -94 l30 -7 -19 118 c-59 366 87 635 445 822 54 28 106 51 116 51 18 0 143 -93 149 -111 2 -5 -10 -31 -26 -57 -69 -107 -90 -188 -102 -394 -8 -151 -28 -255 -53 -288 -7 -9 -41 -34 -77 -55 -81 -48 -175 -141 -229 -225 -51 -78 -111 -260 -86 -260 2 0 129 22 282 49 340 60 407 70 413 64 9 -9 -105 -104 -215 -178 -477 -321 -1076 -356 -1675 -98 -364 157 -725 462 -959 811 -295 441 -439 931 -460 1572 l-6 195 -58 -137 c-183 -435 -253 -965 -191 -1444 78 -610 358 -1199 760 -1601 108 -107 119 -122 102 -130 -17 -8 -5 -20 94 -99 205 -163 325 -243 493 -327 102 -51 106 -54 81 -65 -14 -6 -26 -15 -26 -20 0 -10 140 -78 250 -120 190 -74 439 -140 598 -158 34 -3 65 -10 67 -15 3 -4 -8 -23 -25 -43 l-31 -34 78 -8 c218 -22 532 -1 768 51 60 14 113 25 117 25 4 0 -1 -23 -12 -50 -24 -61 -24 -60 -2 -60 24 0 293 82 377 115 122 48 327 150 425 213 l95 60 3 -69 c2 -38 5 -69 8 -69 14 0 194 129 294 211 170 139 324 299 436 453 l21 29 28 -71 c16 -40 31 -72 34 -72 10 0 161 208 228 313 86 137 193 357 239 492 20 61 39 112 41 115 3 3 29 -22 58 -55 l53 -60 12 30 c20 53 68 229 89 331 35 171 51 328 51 504 l0 169 58 -34 c31 -19 61 -35 66 -35 5 0 7 81 3 193 -8 275 -52 515 -136 747 l-29 79 31 -5 c18 -3 54 -10 81 -15 27 -5 51 -8 53 -5 10 10 -75 232 -137 361 -98 201 -222 392 -333 512 l-39 43 23 9 c13 5 50 14 82 21 31 7 57 17 57 22 0 37 -264 313 -420 440 -90 72 -243 177 -326 224 l-37 21 76 52 c42 28 77 56 77 61 0 25 -246 156 -427 230 -158 63 -272 96 -510 146 -13 2 -23 9 -23 14 0 5 21 41 46 81 26 40 42 75 37 80 -14 14 -181 38 -340 49 -208 13 -491 -7 -650 -47 -28 -6 -28 -8 2 105 14 51 25 95 25 98 0 8 -35 3 -170 -25z m-10 -156 c0 -16 -107 -271 -137 -325 -43 -80 -118 -193 -142 -214 -17 -15 -24 -15 -92 3 -113 30 -231 44 -334 39 l-92 -5 4 71 c6 107 6 107 80 152 180 110 458 227 643 269 67 16 70 16 70 10z m888 -131 c17 -3 32 -9 32 -13 0 -16 -130 -169 -206 -241 -81 -77 -192 -165 -230 -182 -18 -9 -39 -1 -120 45 -98 55 -219 102 -321 127 -29 6 -53 15 -53 20 0 4 18 46 41 94 27 57 48 90 62 95 41 16 276 52 389 60 109 8 338 5 406 -5z m-1810 -221 c-5 -155 -31 -312 -72 -430 l-13 -38 -82 -12 c-117 -17 -214 -40 -284 -68 -33 -14 -61 -24 -63 -22 -1 1 -11 35 -22 75 l-21 74 26 41 c55 88 139 194 222 280 82 86 285 257 304 257 6 0 7 -66 5 -157z m1987 1 c190 -33 405 -97 569 -171 154 -69 151 -64 65 -113 -104 -61 -220 -113 -329 -147 -155 -49 -145 -49 -179 0 -40 59 -181 191 -274 257 -42 30 -77 58 -77 62 0 17 102 128 118 128 9 0 58 -7 107 -16z m-1021 -168 c114 -29 252 -93 362 -166 75 -51 234 -199 234 -219 0 -12 -119 -116 -211 -184 -93 -68 -182 -118 -271 -151 l-68 -26 -57 26 c-32 14 -86 34 -121 45 l-62 20 29 37 c66 85 201 329 201 365 0 15 -91 82 -168 123 -31 17 -59 35 -61 40 -6 16 63 114 80 114 9 0 60 -11 113 -24z m821 -110 c148 -114 266 -245 339 -379 41 -75 86 -184 86 -209 0 -19 -247 -108 -365 -133 -44 -9 -132 -19 -195 -22 -115 -6 -115 -6 -148 22 -18 15 -62 47 -98 70 l-65 43 35 21 c92 58 336 278 336 304 0 14 -62 89 -144 175 -67 70 -69 73 -50 87 11 7 47 34 80 59 l59 45 45 -26 c25 -14 63 -40 85 -57z m-1389 3 c43 -6 114 -22 159 -36 99 -31 284 -120 292 -141 13 -34 -145 -279 -252 -391 l-71 -74 -70 13 c-38 7 -106 11 -151 9 -70 -4 -82 -2 -78 11 12 41 34 163 40 225 3 39 8 79 10 91 6 26 -10 34 -133 65 -69 18 -91 27 -87 38 5 13 27 105 39 163 5 24 11 27 54 31 100 8 174 7 248 -4z m-1066 -239 c27 -81 46 -181 55 -285 l7 -80 -54 -32 c-60 -35 -158 -129 -196 -185 -13 -21 -27 -38 -30 -38 -9 0 6 185 23 265 34 166 144 451 165 429 5 -5 18 -38 30 -74z m3401 34 c190 -105 338 -214 492 -363 53 -52 97 -97 97 -101 0 -11 -136 -31 -255 -37 -98 -5 -313 9 -372 23 -12 3 -25 16 -29 27 -3 12 -29 67 -56 122 -50 99 -91 163 -156 240 l-33 40 98 47 c54 25 105 47 114 47 9 1 54 -20 100 -45z m-368 -162 c147 -182 238 -389 262 -598 8 -73 17 -69 -160 -85 -123 -12 -257 -7 -378 13 l-68 11 -50 78 c-27 42 -56 83 -64 89 -19 16 -19 30 0 30 25 0 205 60 295 98 106 45 150 70 150 86 0 22 -40 135 -82 233 -22 52 -39 95 -37 97 17 11 56 22 66 19 7 -3 37 -35 66 -71z m-2298 37 c53 -8 79 -17 83 -27 15 -40 -65 -377 -99 -418 -6 -7 -29 -16 -52 -19 -59 -10 -148 -47 -209 -89 l-53 -35 -16 77 c-20 90 -63 221 -91 275 -14 29 -24 37 -36 32 -9 -3 -29 -9 -43 -12 -24 -4 -27 -1 -32 34 -16 96 -15 98 71 131 151 59 310 76 477 51z m755 -351 c90 -29 194 -82 267 -137 34 -25 63 -49 63 -52 0 -11 -150 -153 -193 -182 -75 -51 -237 -127 -237 -111 0 4 21 29 46 58 50 55 110 140 139 196 l18 35 -56 50 c-31 28 -92 72 -136 97 -75 42 -79 46 -63 61 19 20 52 16 152 -15z m-1235 -90 c20 -62 39 -141 42 -175 6 -61 6 -61 -31 -94 -21 -18 -58 -61 -83 -96 -24 -34 -47 -63 -51 -63 -3 0 -33 27 -68 60 -34 33 -69 60 -77 60 -8 0 -35 -16 -61 -36 -26 -20 -48 -34 -50 -32 -1 1 -14 22 -29 45 -15 24 -27 48 -27 56 0 30 71 156 115 205 54 59 140 122 218 157 29 13 55 24 58 24 4 1 23 -50 44 -111z m1698 61 c74 -38 160 -104 234 -182 84 -88 107 -122 100 -141 -8 -21 -179 -124 -262 -157 -40 -16 -104 -34 -143 -41 -80 -13 -89 -11 -157 48 l-40 34 35 27 c66 52 113 98 183 178 l70 79 -82 77 -82 77 28 10 c43 16 70 14 116 -9z m-815 -35 c80 -16 234 -85 287 -127 l29 -24 -39 -59 c-50 -75 -200 -224 -225 -224 -10 0 -30 4 -43 9 l-24 10 22 78 c13 43 26 102 30 130 l7 53 -89 43 c-58 28 -117 48 -167 57 -61 10 -76 16 -74 29 7 38 158 51 286 25z m2353 -90 c21 -12 70 -128 95 -221 46 -174 43 -503 -4 -503 -33 0 -208 41 -267 61 -87 31 -202 89 -282 142 -67 44 -71 50 -87 105 -20 74 -20 81 2 75 22 -5 265 13 342 27 30 5 72 12 93 15 l37 6 0 62 c0 60 -14 173 -27 225 -6 25 -5 25 41 19 26 -4 52 -9 57 -13z m482 -76 c146 -163 235 -292 339 -497 61 -121 62 -132 6 -119 -136 30 -392 139 -520 222 -49 31 -58 41 -58 66 0 54 -38 224 -69 309 -17 47 -31 86 -31 88 0 1 39 4 88 6 48 1 106 4 129 5 40 2 44 -1 116 -80z m-1511 5 c60 -62 116 -151 161 -255 54 -127 55 -134 15 -146 -145 -46 -388 -63 -473 -33 -44 15 -77 39 -70 51 3 5 44 29 93 55 102 56 252 162 252 179 0 14 -51 96 -91 148 -26 32 -27 37 -12 41 56 15 79 7 125 -40z m-1943 -120 c0 -5 -32 -28 -71 -53 -78 -49 -154 -133 -194 -212 -19 -38 -28 -48 -35 -37 -23 36 11 102 96 184 72 70 207 147 204 118z m-765 -156 l35 -67 -23 -35 c-13 -19 -34 -60 -47 -90 -12 -30 -26 -55 -29 -55 -12 0 -31 140 -37 270 l-6 125 36 -40 c20 -22 52 -70 71 -108z m3041 1 c29 -43 66 -181 76 -291 6 -60 8 -111 5 -114 -2 -3 -49 2 -104 11 -93 14 -241 60 -307 94 l-30 15 105 22 c133 27 240 63 247 82 5 13 -20 152 -34 189 -9 23 24 16 42 -8z m-2762 -87 c89 -95 162 -224 191 -335 15 -57 15 -59 -10 -101 l-25 -43 -56 60 c-58 60 -182 158 -201 158 -14 0 -129 -125 -148 -162 -15 -28 -17 -30 -26 -13 -15 26 -3 141 21 210 11 32 35 83 53 113 36 59 127 162 145 162 5 0 31 -22 56 -49z m1613 5 c69 -51 174 -151 174 -165 0 -14 -126 -94 -188 -120 -57 -23 -207 -50 -219 -38 -3 4 9 24 28 45 20 20 50 56 67 78 l32 42 -43 38 c-23 22 -58 51 -77 66 -19 15 -32 29 -30 32 9 8 164 64 181 65 9 1 43 -19 75 -43z m402 -150 c90 -94 119 -138 99 -154 -6 -6 -50 -28 -95 -51 -93 -44 -169 -64 -234 -59 -41 3 -43 4 -46 38 -3 34 1 38 88 103 50 38 94 75 97 83 3 9 -8 35 -26 60 -17 25 -31 46 -31 49 0 3 28 10 56 14 6 0 47 -37 92 -83z m-1298 19 c87 -45 120 -174 85 -338 -19 -92 -47 -149 -153 -319 -105 -168 -132 -220 -202 -388 -86 -206 -105 -236 -164 -267 l-28 -15 16 23 c23 34 21 105 -3 119 -11 5 -27 10 -36 10 -28 0 -62 -45 -70 -91 -12 -79 -11 -78 -55 -68 -21 5 -55 17 -75 26 l-35 17 0 73 0 74 44 19 c88 37 102 73 137 355 11 88 28 194 39 235 40 162 114 266 230 323 l65 32 6 51 c8 65 33 102 84 125 49 23 77 24 115 4z m3153 -173 c7 -61 -6 -214 -25 -297 -16 -74 -76 -223 -114 -282 l-33 -52 -73 41 c-175 99 -288 195 -389 332 l-59 80 0 79 c0 71 2 79 18 74 201 -62 441 -112 458 -94 10 10 44 159 44 194 0 64 5 65 90 21 l77 -40 6 -56z m-863 66 c41 -28 48 -53 56 -183 5 -88 -6 -218 -20 -233 -9 -8 -178 49 -250 84 -81 40 -178 108 -221 154 -30 33 -30 33 -5 26 108 -30 366 -64 379 -50 3 3 7 55 9 115 3 60 8 109 12 109 4 0 22 -10 40 -22z m1192 -157 c17 -16 92 -209 121 -311 43 -149 97 -490 79 -490 -16 0 -176 126 -261 205 -45 44 -112 116 -147 161 l-65 83 21 78 c11 43 25 121 31 173 6 52 13 113 15 136 l5 41 92 -30 c51 -16 100 -37 109 -46z m-2552 -18 c0 -60 -29 -146 -65 -199 -43 -63 -62 -66 -86 -14 -19 40 -44 178 -34 188 5 5 136 42 178 51 4 0 7 -11 7 -26z m-1589 -124 c41 -49 58 -76 54 -88 -9 -22 -20 -95 -45 -286 -11 -88 -25 -174 -31 -191 -10 -31 -55 -62 -70 -47 -4 4 -17 43 -29 87 -12 43 -44 144 -72 225 -28 80 -58 165 -66 189 -14 41 -14 44 16 105 17 34 45 79 62 99 l31 38 45 -30 c24 -17 71 -63 105 -101z m1311 30 c5 -41 10 -79 12 -86 6 -14 -76 -76 -128 -98 l-35 -15 -11 41 c-14 51 -6 75 55 169 41 62 49 70 73 67 26 -3 27 -7 34 -78z m497 -55 c34 -26 60 -51 59 -58 -3 -10 -282 -154 -300 -156 -20 -1 -5 51 25 89 19 23 45 71 58 107 23 62 25 64 61 64 27 0 50 -11 97 -46z m-3043 -180 c47 -172 87 -296 129 -400 37 -94 37 -91 2 -238 l-21 -89 -29 34 c-98 116 -157 366 -143 615 7 130 16 217 23 211 2 -2 19 -62 39 -133z m4154 -19 c67 -19 127 -35 135 -35 7 0 20 28 31 66 l18 67 33 -39 c18 -22 33 -50 33 -65 0 -80 -93 -321 -150 -387 l-20 -24 -39 32 c-109 85 -239 261 -304 408 -20 46 -37 87 -37 91 0 3 40 -13 89 -36 49 -24 144 -59 211 -78z m-1524 14 c14 -23 34 -43 43 -46 32 -8 11 -51 -53 -108 -33 -30 -64 -55 -68 -55 -9 0 -44 97 -53 146 -6 41 -5 43 37 73 24 16 49 30 55 31 7 0 24 -19 39 -41z m-261 -64 c51 0 62 -65 18 -107 -32 -29 -104 -78 -115 -78 -4 0 -15 14 -23 31 -15 28 -15 35 1 82 9 29 26 72 37 96 l20 43 16 -33 c13 -28 22 -34 46 -34z m2226 -94 c45 -32 135 -86 199 -120 l118 -61 26 31 c14 17 45 62 67 100 23 39 45 66 49 62 87 -96 150 -179 146 -192 -29 -103 -41 -137 -76 -205 -23 -44 -61 -108 -86 -142 -49 -70 -172 -198 -220 -232 l-32 -22 -58 71 c-115 137 -201 289 -254 449 -35 103 -36 119 -11 168 10 20 24 63 31 95 7 31 14 57 16 57 1 0 40 -26 85 -59z m-2121 -130 l20 -39 -36 -79 c-46 -101 -82 -239 -86 -330 l-3 -72 -37 36 c-80 78 -138 239 -138 380 l0 55 19 -23 19 -23 61 32 c34 17 83 48 109 67 26 19 48 35 49 35 2 0 12 -18 23 -39z m892 -48 c18 -32 38 -70 45 -85 11 -27 10 -29 -25 -46 -20 -10 -58 -31 -84 -46 -26 -15 -52 -26 -57 -24 -18 6 64 258 84 258 2 0 18 -26 37 -57z m826 -211 l61 -42 50 60 c28 33 54 60 58 60 5 0 18 -29 31 -65 21 -62 21 -67 6 -98 -30 -58 -91 -141 -136 -184 -42 -41 -143 -113 -158 -113 -11 0 -86 177 -109 260 -27 96 -51 240 -51 308 l0 54 94 -99 c52 -54 121 -117 154 -141z m-3897 -193 l49 -82 0 -92 c0 -50 5 -118 11 -150 7 -39 7 -65 1 -79 -6 -12 -14 -54 -19 -94 l-8 -74 -41 30 c-39 29 -42 34 -54 109 -20 123 -24 305 -10 420 7 57 15 101 18 99 2 -3 26 -42 53 -87z m4388 -256 c45 -51 86 -93 90 -93 12 0 163 114 190 144 14 14 27 26 31 26 3 0 14 -26 24 -57 10 -32 29 -84 43 -115 l25 -57 -46 -64 c-79 -110 -198 -207 -348 -282 -103 -51 -225 -92 -238 -79 -14 14 -77 243 -94 341 -9 48 -16 143 -16 210 l0 122 68 89 67 89 61 -91 c34 -50 98 -133 143 -183z m-765 197 c10 -31 44 -107 76 -170 46 -91 62 -114 77 -112 10 2 46 21 81 43 35 21 67 39 71 39 4 0 8 -40 10 -88 l2 -88 -53 -45 c-98 -83 -214 -145 -317 -168 -36 -8 -40 -6 -45 13 -13 56 -17 239 -7 326 12 101 70 326 81 313 3 -4 14 -33 24 -63z m-3295 -382 c24 -26 42 -50 39 -53 -8 -8 -153 52 -167 69 -9 11 -41 141 -41 167 0 6 28 -23 62 -63 34 -40 82 -94 107 -120z m3081 -108 c0 -58 30 -223 41 -235 3 -2 38 3 78 11 40 8 75 14 77 12 5 -6 -46 -160 -57 -174 -21 -26 -189 -57 -306 -57 -62 -1 -115 2 -119 6 -11 10 45 188 85 272 22 44 72 121 113 172 82 103 86 103 88 -7z m-3136 -31 c55 -22 105 -44 110 -49 5 -5 21 -46 36 -92 15 -46 35 -100 44 -120 l16 -38 -45 0 -46 0 6 -52 c4 -29 11 -75 16 -101 15 -80 17 -78 -53 -55 -35 11 -71 28 -81 37 -21 21 -83 190 -102 282 -23 106 -31 229 -15 229 7 0 58 -18 114 -41z m3718 -129 c27 -88 98 -270 105 -270 15 0 138 34 205 57 43 15 80 24 82 22 3 -2 6 -63 7 -134 l2 -130 -49 -38 c-80 -61 -217 -126 -322 -153 -103 -27 -298 -43 -367 -30 l-38 7 7 127 c4 70 16 171 27 225 20 101 77 272 103 312 8 12 51 43 95 69 43 26 85 54 93 63 11 14 14 11 21 -23 5 -21 18 -68 29 -104z m-3315 -43 c65 -47 74 -58 92 -110 l20 -58 -32 6 c-18 4 -59 12 -92 18 l-60 12 -42 105 c-65 164 -64 160 -7 117 27 -21 81 -61 121 -90z m2368 -87 c-13 -21 -54 -225 -46 -233 4 -4 36 -12 72 -18 35 -6 65 -12 67 -14 4 -3 -98 -161 -121 -186 -16 -18 -82 -18 -192 2 -82 15 -245 68 -245 80 0 37 115 166 174 196 81 41 177 100 231 142 49 39 72 51 60 31z m-1877 -195 l92 -39 52 -78 c28 -43 49 -80 47 -82 -2 -2 -54 -6 -114 -10 l-110 -7 -31 33 c-77 82 -170 224 -189 286 -6 22 -1 21 77 -21 45 -24 125 -61 176 -82z m-513 25 c189 -32 191 -33 223 -92 15 -28 48 -79 74 -114 l47 -64 -42 -10 c-84 -22 -107 -32 -107 -46 0 -18 59 -176 71 -188 5 -6 9 -13 9 -16 0 -12 -142 -1 -158 12 -34 28 -137 177 -168 244 -30 64 -84 245 -84 280 0 17 -8 18 135 -6z m2858 -137 c-4 -43 -8 -136 -8 -208 l0 -130 40 -7 c22 -3 93 -10 158 -14 79 -5 116 -10 113 -18 -2 -6 -12 -45 -21 -86 -10 -41 -22 -91 -26 -111 l-9 -37 -93 -18 c-121 -23 -316 -23 -417 0 -41 9 -116 30 -167 47 l-92 30 6 32 c20 108 116 323 199 446 75 112 71 109 174 122 52 6 103 15 114 19 36 15 37 12 29 -67z m-1052 -34 c-27 -38 -40 -64 -34 -70 6 -6 42 -27 82 -48 l71 -37 -74 -72 -74 -72 -74 26 c-91 33 -147 61 -227 114 -68 45 -158 127 -149 135 3 3 66 12 139 20 142 15 255 35 329 58 25 7 47 12 49 10 3 -2 -15 -31 -38 -64z m-774 5 l118 -17 87 -89 c68 -70 83 -90 70 -95 -9 -3 -42 -17 -72 -30 -30 -14 -72 -31 -93 -39 l-38 -13 -72 53 c-40 30 -88 71 -108 92 -48 52 -149 176 -149 184 0 4 31 -1 70 -11 38 -10 122 -26 187 -35z m-204 -200 c18 -15 62 -55 99 -89 l67 -62 -92 -68 c-51 -38 -94 -70 -95 -71 -8 -6 52 -104 93 -155 25 -29 43 -54 42 -55 -1 -1 -42 -12 -91 -23 -81 -19 -91 -20 -110 -6 -12 8 -37 26 -56 39 -50 34 -162 151 -218 227 -66 92 -131 227 -113 238 24 15 174 44 266 52 127 10 171 4 208 -27z m1297 -23 c25 -6 75 -11 113 -11 37 0 67 -2 67 -5 0 -2 -13 -37 -29 -77 -27 -69 -63 -182 -76 -239 -6 -25 -2 -28 97 -71 57 -25 120 -51 141 -57 20 -7 37 -14 37 -16 0 -2 -25 -39 -55 -81 -31 -43 -60 -84 -64 -92 -12 -21 -147 -11 -271 19 -144 35 -419 185 -420 228 0 15 58 94 145 195 70 82 237 227 255 221 8 -2 35 -9 60 -14z m-585 -106 c59 -30 114 -55 121 -55 28 0 21 -20 -27 -80 -61 -76 -129 -175 -129 -188 0 -5 45 -45 101 -88 l101 -79 -33 -25 c-18 -14 -55 -44 -81 -67 -27 -24 -55 -43 -62 -43 -22 0 -233 107 -297 151 -106 72 -277 254 -265 284 15 40 383 238 453 244 6 1 59 -24 118 -54z"/>
<path d="M3991 6390 c-18 -4 -48 -22 -65 -39 -30 -30 -31 -35 -31 -115 0 -47 4 -88 8 -93 5 -4 17 4 28 19 15 20 34 30 74 38 45 9 58 17 70 40 8 16 15 42 15 58 0 35 -19 92 -30 92 -5 0 -14 2 -22 4 -7 2 -28 0 -47 -4z"/>
<path d="M3134 8112 c-193 -169 -364 -364 -499 -572 -109 -167 -105 -154 -105 -358 0 -99 3 -201 7 -227 l6 -47 39 103 c98 262 277 565 450 761 50 57 67 87 119 215 33 81 69 163 80 182 11 18 18 35 17 37 -2 1 -53 -41 -114 -94z"/>
</g>
</svg>