<svg xmlns="http://www.w3.org/2000/svg" xml:space="preserve" viewBox="322.33 44.45 381.92 185.91">
  <path d="M668.534119 157.761017c.282714-4.698898-2.347901-8.366837-4.690735-12.039902-8.14093-12.763275-19.794556-21.041901-34.127808-25.435463-4.802612-1.472153-5.838074-3.551353-4.245361-8.280372 2.654968-7.883255 5.312805-15.704369 10.042602-23.937157 5.369568 5.020386 10.468018 9.414139 15.142395 14.220375 24.122254 24.803078 40.182007 54.570145 52.962342 86.358353 1.210571 3.010986.799133 4.736801-2.250366 5.768295-.157166.053146-.319214.113174-.454957.205414-8.770141 5.962082-16.004272 5.73088-24.979309-1.658615-12.983154-10.68956-28.547363-17.104538-46.052246-16.637848-3.258606.086883-4.239197-2.165451-5.172546-4.514222-5.602478-14.098678-5.620972-28.580978-2.927551-43.250671.416748-2.269691 1.756897-2.607284 3.646789-1.979072 10.256043 3.409187 19.583557 8.369987 27.191162 16.229942 1.123108 1.160385 1.687928 2.428329 1.515259 4.038574-.559875 5.220993 2.36499 7.546784 7.000366 8.640488 2.420777.571167 4.755799 1.505707 7.399964 2.271881m-125.542908 23.65535c2.648865-18.523728 10.439941-33.676499 25.07251-44.979889.919189-.710053 1.889587-1.367051 2.894836-1.947037.535889-.309189 1.197571-.400528 1.81543-.594284 1.502197 2.082367.058471 3.659942-.531372 5.23201-2.982605 7.948852-5.741272 16.005813-9.218872 23.736831-2.554932 5.679932-.503235 9.664017 3.345459 13.292221 7.609924 7.173844 21.645446 5.768845 27.539367-2.602523 2.235962-3.175858 3.028138-6.253052 1.324585-10.207184-4.280395-9.935288-7.953796-20.130982-12.173401-30.094055-1.611877-3.805848-.529907-5.327034 3.132752-6.467858 7.393921-2.302986 14.869751-3.507682 22.623047-3.108322 5.322937.274185 6.080993.975296 5.168396 6.359413-1.85315 10.932968-2.235779 21.852234.326294 32.704331 1.140991 4.832916 2.756347 9.553833 4.329834 14.916595-24.141419 8.73761-34.128846 26.428864-30.963623 52.480255-8.917054 0-17.325562.060089-25.731934-.047775-1.805054-.023148-2.758789-1.722137-3.809509-2.99913-10.812744-13.140412-16.404724-28.039948-15.143799-45.673599m-49.184448-15.609147c9.307647-9.049377 17.429138-18.844039 28.581726-25.354324 10.890381-6.357223 22.579162-9.655914 35.06018-10.467255 1.274903-.08287 2.679322-.389831 3.768372.789795.549866 1.462937-.661926 2.084641-1.461365 2.819901-12.967468 11.926834-21.114319 26.443069-23.40924 44.007095-.43982 3.366089-1.945679 4.387909-5.18805 4.53035-29.15747 1.280914-48.858795 16.73822-56.760986 44.478195-.616852 2.165344-1.290436 3.6801-3.847229 3.664948-7.996369-.047425-15.993134-.032685-23.989746-.022019-2.181183.002899-3.483185-.756607-3.358826-3.216583.285675-5.651031.478607-11.306686.730805-16.959503.21405-4.798477 2.156219-8.201676 6.51416-10.909775 15.445343-9.598038 30.11261-20.2883 43.360199-33.360825m39.72937-65.238647c-3.221558 4.033035-5.694702 3.694366-8.950195.118919-14.077515-15.461074-21.953949-33.920257-26.825226-53.91035-.143494-.588864.096649-1.271225.195587-2.302834 6.774139-.225685 13.264709.913937 19.731994 2.121273 14.784424 2.760017 28.999878 7.239159 42.553406 13.860237 3.422241 1.671822 4.520935 3.723068 5.01062 7.553383 1.250122 9.776138-1.016357 16.089874-11.525818 19.244103-7.564697 2.270439-13.786926 7.916603-20.190368 13.315269m-36.309143 50.618622c-8.207672 9.192962-16.508484 17.757171-26.571564 24.489364-10.524292-18.135788 11.360992-76.908454 33.286072-89.870925 3.230713 2.435112 4.473785 6.405555 6.82727 9.538955 3.20517 4.267433 6.484772 8.463204 10.234528 12.272545 1.456299 1.479416 2.851379 2.921623.972412 5.10009-7.803772 9.047951-12.500885 20.031189-18.710632 30.073288-1.746582 2.824493-3.870118 5.415848-6.038086 8.396683m74.796142-81.232086c.782471-5.783692.208924-11.298664 1.62854-17.026707 5.645386 1.713795 9.878846 4.633408 14.211182 7.293785 12.849548 7.890568 24.05957 17.725925 34.167786 28.886936 2.078552 2.294983 2.342102 4.328308 1.221374 7.188629-2.178894 5.560929-4.071716 11.246651-5.795654 16.967308-.759827 2.521592-1.80481 3.45195-4.554321 3.228386-7.811585-.635162-15.624939-.522056-23.249329 1.665329-2.920776.837967-4.630737-.342094-6.065002-2.841171-6.230652-10.856689-9.651246-22.564224-10.856385-34.962196-.321472-3.306893-.474853-6.630135-.708191-10.400299m-108.917511-5.130974c8.687531-1.93142 17.06717-3.109188 25.491303-4.042797 3.436432-.380844 5.109466.888485 6.835968 4.094761 4.562286 8.47245 4.955017 15.006103-3.478424 21.982093-7.892609 6.528626-13.237396 15.721314-18.125153 24.854844-1.183197 2.210968-2.418915 2.625419-4.78128 1.569694-12.639374-5.64846-32.637177-23.900719-39.132599-36.241493 10.249847-5.905792 21.512176-9.028969 33.190185-12.217102m-20.808136 52.600548c5.496918-11.602204 4.279053-9.697579 13.045746-3.908989 3.192536 2.108024 6.324433 4.386505 9.74646 6.045929 3.326904 1.613281 3.700073 3.54853 2.489441 6.775596-5.704742 15.207062-7.943878 31.11026-5.957306 47.079911 1.014374 8.154602-2.081604 11.929641-8.233642 15.249496-3.743836 2.020325-6.928009 5.043549-11.567963 6.935577-10.650147-26.367004-10.582672-52.090942.477264-78.17752m-13.771606 61.060211c1.505646 6.57457 3.308777 12.620193 5.706909 18.474045.770355 1.880462 1.048157 3.421295-1.103638 4.643844-13.022888 7.398972-26.265228 14.337586-40.368011 19.491928-.713959.260941-1.553894.177246-2.508301.271042 0-.797684-.182709-1.374847.026337-1.7005 8.10791-12.629914 8.36496-27.023209 9.485962-41.271302.61557-7.824325 2.82016-15.32254 5.877777-22.575897 1.126373-2.671997 2.784485-3.423218 5.492492-2.697357 2.241364.600784 4.537079 1.041489 6.833802 1.385513 7.81607 1.170761 7.712158 1.152619 8.47583 9.276215.449737 4.784195 1.30777 9.530029 2.080841 14.702469m-.455017-40.564545c-2.00473 9.558258-2.0177 9.655518-11.760102 8.35669-11.175567-1.489869-21.594024-5.342011-31.50534-10.630799-1.014496-.541351-2.076019-1.083908-2.69104-2.627853 5.323883-8.150025 12.874267-14.432442 20.355804-20.686928 7.665375-6.408134 15.979431-11.936401 24.718903-16.8517 3.332184-1.8741 5.758545-2.043953 8.155151 1.112663.898072 1.182877 1.989929 2.263436 3.152527 3.191247 2.362183 1.885025 2.490265 3.717575 1.028046 6.441513-5.290741 9.856163-9.412171 20.185508-11.453949 31.695167m-81.929932 92.376007c-8.559784-.597259-16.480835-1.79924-23.809448-5.684143.76474-2.691101 2.903229-3.152435 4.557281-4.056457 10.985352-6.003998 21.241272-13.024521 30.35904-21.632477 1.534851-1.449051 3.093994-2.548798 5.283081-2.128128 8.199463 1.575714 16.422424 2.31192 24.74176.982681.752625-.120224 1.580444.22998 2.319885.352844.832245 12.479019-10.371002 27.717835-22.19635 30.40448-6.839721 1.553955-13.781189 2.00174-21.255249 1.7612m223.328064-128.752395c1.824219 5.615089 4.139527 10.585273 6.603272 15.502143.762756 1.522271 2.750122 3.131943 1.247558 4.915871-1.556701 1.848297-3.830566 2.09523-6.387024 1.776939-10.798401-1.344429-21.566955-1.316032-32.181335 1.598092-5.645325 1.549911-10.968811 3.864151-16.19635 6.45433-1.415894.701553-2.634217 2.052963-5.381226 1.51265 11.015808-20.526024 26.832215-34.91063 48.413208-43.520791 2.465332 3.590249 2.327637 7.766732 3.881897 11.760766m-197.007446 89.321182c-6.250427-1.107575-12.264008-1.367462-17.359436-4.082428-.405762-2.063324.432922-3.174591 1.225555-4.20549 8.836029-11.492249 17.960083-22.741394 28.471802-32.774842 3.55072-3.389206 9.665863-3.225555 13.403198.106797 1.503388 1.340484.909058 2.687942.319092 4.060196-4.192444 9.751876-6.385254 19.945068-6.638061 30.539154-.097046 4.067123-1.745057 5.83406-6.030823 5.989227-4.310791.156082-8.606446.824524-13.391327.367386" fill="#fa8112"/>
  <path d="M622.549133 210.458969c3.5719 6.376984 6.987427 12.41626 10.349121 18.360367-1.790222 2.085144-3.744873 1.400192-5.457397 1.435776-4.827149.100341-9.657715.035583-14.486939.03598-13.9151.00116-21.490966-11.429886-16.051879-24.316071 3.556457-8.425857 9.342468-14.652084 18.626098-18.623108 1.14856 8.408783 3.290589 15.829606 7.020996 23.107056m-110.298217 1.207596c1.696838 6.313919 4.344604 11.851181 6.894897 17.786102-3.754639 1.436051-7.084595.70813-10.309662.808197-4.32782.134278-8.663116.029694-12.995209.024567-9.596527-.011368-13.68219-7.01001-8.916839-15.468186 5.479919-9.726547 13.447082-16.641479 24.327362-21.274337.50293 6.325042-1.138306 12.162674.999451 18.123657m72.51007-44.255463c-5.764282.002899-11.059631.002899-17.212036.002899 3.189392-10.081619 6.964112-19.058044 10.680725-28.056945.495484-.005722.990906-.01146 1.486389-.017182 3.504273 8.975006 7.008484 17.950028 10.410462 26.663025-1.87738 1.686157-3.438538 1.289551-5.36554 1.408203" fill="#fa8112"/>
</svg>